<svg xmlns="http://www.w3.org/2000/svg" xmlns:svg="http://www.w3.org/2000/svg" id="svg8" width="210mm" height="297mm" version="1.1" viewBox="0 0 210 297"><metadata id="metadata5"/><g id="layer1"><path id="rect10" d="M 30.079704,0.09990082 C 13.470789,0.09990082 0.09999369,13.470696 0.09999369,30.079611 V 269.92038 c 0,16.60892 13.37079531,29.97973 29.97971031,29.97973 H 269.92047 c 16.60892,0 29.97972,-13.37081 29.97972,-29.97973 V 30.079611 c 0,-16.608915 -13.3708,-29.97971018 -29.97972,-29.97971018 z m 0,20.98626118 a 8.993997,8.9939972 0 0 1 8.994997,8.993449 8.993997,8.9939972 0 0 1 -8.994997,8.994998 8.993997,8.9939972 0 0 1 -8.993449,-8.994998 8.993997,8.9939972 0 0 1 8.993449,-8.993449 z m 239.840766,0 a 8.993997,8.9939972 0 0 1 8.99346,8.993449 8.993997,8.9939972 0 0 1 -8.99346,8.994998 8.993997,8.9939972 0 0 1 -8.99499,-8.994998 8.993997,8.9939972 0 0 1 8.99499,-8.993449 z M 30.079704,260.92538 a 8.993997,8.9939972 0 0 1 8.994997,8.995 8.993997,8.9939972 0 0 1 -8.994997,8.99346 8.993997,8.9939972 0 0 1 -8.993449,-8.99346 8.993997,8.9939972 0 0 1 8.993449,-8.995 z m 239.840766,0 a 8.993997,8.9939972 0 0 1 8.99346,8.995 8.993997,8.9939972 0 0 1 -8.99346,8.99346 8.993997,8.9939972 0 0 1 -8.99499,-8.99346 8.993997,8.9939972 0 0 1 8.99499,-8.995 z" style="fill:#ececec;stroke:gray;stroke-width:.2998;stroke-linejoin:round;stroke-miterlimit:2;stroke-dasharray:none"/></g></svg>